<svg xmlns="http://www.w3.org/2000/svg" width="16" height="15.992" viewBox="0 0 16 15.992">
  <path id="Path_69106" d="M2.705,8.216,16.271,21.781a1.119,1.119,0,0,0,.541.3,1.412,1.412,0,0,0,.635.006,1.006,1.006,0,0,0,.547-.321,1.119,1.119,0,0,0,.321-.541,1.254,1.254,0,0,0,0-.635,1.165,1.165,0,0,0-.308-.547L4.44,6.481a1.25,1.25,0,0,0-.553-.308,1.277,1.277,0,0,0-.629-.006,1.11,1.11,0,0,0-.553.327,1.078,1.078,0,0,0-.314.547,1.276,1.276,0,0,0,.006.629A1.252,1.252,0,0,0,2.705,8.216Zm0,11.831a1.165,1.165,0,0,0-.308.541,1.3,1.3,0,0,0-.006.635,1.078,1.078,0,0,0,.314.547,1.069,1.069,0,0,0,.553.321,1.385,1.385,0,0,0,.629-.006,1.2,1.2,0,0,0,.553-.3L18.006,8.216a1.252,1.252,0,0,0,.308-.547,1.229,1.229,0,0,0,0-.629,1.119,1.119,0,0,0-.321-.547,1.043,1.043,0,0,0-.547-.327,1.3,1.3,0,0,0-.635.006,1.165,1.165,0,0,0-.541.308Z" transform="translate(-2.355 -6.13)" fill="#fff"/>
</svg>
