<svg xmlns="http://www.w3.org/2000/svg" width="80" height="80" viewBox="0 0 80 80">
  <g id="Path_69118" transform="translate(-6.602 -11.352)" fill="#003bff">
    <path d="M 46.60155868530273 90.8515625 C 41.23653793334961 90.8515625 36.11149215698242 89.80632019042969 31.36877059936523 87.74486541748047 C 26.62061500549316 85.6810302734375 22.38036918640137 82.80184936523438 18.76581382751465 79.18730926513672 C 15.15115833282471 75.57266235351562 12.27192497253418 71.33917236328125 10.20805835723877 66.60445404052734 C 8.146736145019531 61.87551879882812 7.101558685302734 56.74370574951172 7.101558685302734 51.3515625 C 7.101558685302734 45.958984375 8.139969825744629 40.82680511474609 10.18795871734619 36.09757232666016 C 12.23812580108643 31.36330604553223 15.11721420288086 27.1232738494873 18.74524688720703 23.49524116516113 C 22.37314796447754 19.86734008789062 26.61994743347168 16.98832893371582 31.3676815032959 14.93817329406738 C 36.11067962646484 12.89005184173584 41.22225952148438 11.8515625 46.5604133605957 11.8515625 C 51.95318222045898 11.8515625 57.09244918823242 12.89005184173584 61.8354377746582 14.93817329406738 C 66.58318328857422 16.98832893371582 70.82999420166016 19.86734008789062 74.45787811279297 23.49524116516113 C 78.08589935302734 27.12325096130371 80.96498107910156 31.36329650878906 83.01515960693359 36.09757232666016 C 85.06314849853516 40.82682800292969 86.1015625 45.95900726318359 86.1015625 51.3515625 C 86.1015625 56.74411773681641 85.06314849853516 61.87629699707031 83.01515960693359 66.60555267333984 C 80.96498107910156 71.33985137939453 78.09281158447266 75.57295989990234 74.47846221923828 79.18730926513672 C 70.86390686035156 82.80184936523438 66.6236572265625 85.6810302734375 61.87550354003906 87.74486541748047 C 57.13278198242188 89.80632019042969 51.99388122558594 90.8515625 46.60155868530273 90.8515625 Z M 46.5604133605957 18.21781730651855 C 42.0140266418457 18.21781730651855 37.69022369384766 19.08292961120605 33.70913696289062 20.78910636901855 C 29.73154830932617 22.49379539489746 26.18949127197266 24.89040756225586 23.18134689331055 27.91239547729492 C 20.17328071594238 30.93433952331543 17.79076957702637 34.49034118652344 16.10001373291016 38.48162841796875 C 14.40803623199463 42.4758186340332 13.55012512207031 46.80588531494141 13.55012512207031 51.3515625 C 13.55012512207031 55.92455291748047 14.40803623199463 60.26846313476562 16.10001373291016 64.26264190673828 C 17.79091453552246 68.25428771972656 20.17369270324707 71.80364227294922 23.18215942382812 74.81211853027344 C 26.19026947021484 77.82020568847656 29.73917007446289 80.209716796875 33.73029327392578 81.91427612304688 C 37.72486877441406 83.62028503417969 42.05539321899414 84.48530578613281 46.60155868530273 84.48530578613281 C 51.20233535766602 84.48530578613281 55.5605583190918 83.62028503417969 59.55514907836914 81.91427612304688 C 63.54663467407227 80.20956420898438 67.08889007568359 77.81977081298828 70.08350372314453 74.81129455566406 C 73.07722473144531 71.80369567871094 75.46625518798828 68.25553131103516 77.18425750732422 64.26534271240234 C 78.90472412109375 60.26942825317383 79.76302337646484 55.923583984375 79.73529052734375 51.34852981567383 C 79.73530578613281 46.80539703369141 78.87027740478516 42.47487258911133 77.16426086425781 38.48028564453125 C 75.45972442626953 34.48917388916016 73.06329345703125 30.93335151672363 70.04153442382812 27.91158485412598 C 67.01991271972656 24.88998413085938 63.47121429443359 22.4936408996582 59.49399185180664 20.78910636901855 C 55.51290130615234 19.08292961120605 51.16141510009766 18.21781730651855 46.5604133605957 18.21781730651855 Z M 42.36288070678711 69.37008666992188 C 41.76542663574219 69.37008666992188 41.22344589233398 69.23860931396484 40.75199127197266 68.97929382324219 C 40.26753616333008 68.71283721923828 39.78042602539062 68.260009765625 39.30416870117188 67.63337707519531 L 39.29869079589844 67.62615966796875 L 39.29294586181641 67.61914825439453 L 29.99691390991211 56.26647567749023 C 29.41368865966797 55.51142501831055 29.1180248260498 54.75785064697266 29.1180248260498 54.02646255493164 C 29.1180248260498 53.24775314331055 29.37548065185547 52.60030746459961 29.90510368347168 52.0471305847168 C 30.42881393432617 51.50016403198242 31.07122611999512 51.23427200317383 31.86904716491699 51.23427200317383 C 32.33887100219727 51.23427200317383 32.78458023071289 51.33506393432617 33.19380187988281 51.53382873535156 C 33.60419464111328 51.73316192626953 34.02347564697266 52.09473419189453 34.44013977050781 52.60865020751953 L 41.84437942504883 62.15189743041992 L 42.28350448608398 62.71787261962891 L 42.66334915161133 62.11051940917969 L 58.46581268310547 36.843017578125 C 59.16891479492188 35.7277717590332 59.98629379272461 35.18489456176758 60.96370315551758 35.18489456176758 C 61.70365905761719 35.18489456176758 62.36172485351562 35.42476272583008 62.97552490234375 35.91820526123047 C 63.55600357055664 36.38486099243164 63.83818054199219 36.97756195068359 63.83818054199219 37.73016357421875 C 63.83818054199219 38.09317398071289 63.75024795532227 38.46482849121094 63.57680130004883 38.83481979370117 C 63.37862396240234 39.25763702392578 63.171142578125 39.67300033569336 62.95991516113281 40.06980895996094 L 45.27523803710938 67.6661376953125 C 44.5432243347168 68.81297302246094 43.59074783325195 69.37008666992188 42.36288070678711 69.37008666992188 Z" stroke="none"/>
    <path d="M 46.60155868530273 90.3515625 C 51.92490386962891 90.3515625 56.99673461914062 89.32025909423828 61.67618179321289 87.28630828857422 C 66.36654663085938 85.24759674072266 70.55490112304688 82.40375518798828 74.12490081787109 78.83374786376953 C 77.69454956054688 75.26412963867188 80.53128051757812 71.08311462402344 82.55632781982422 66.40685272216797 C 84.57698822021484 61.74069595336914 85.6015625 56.67536163330078 85.6015625 51.3515625 C 85.6015625 46.02776336669922 84.57698822021484 40.96242904663086 82.55632781982422 36.29627227783203 C 80.53129577636719 31.62002944946289 77.6876220703125 27.43208503723145 74.10432434082031 23.84879493713379 C 70.52127838134766 20.26573944091797 66.32673645019531 17.42221832275391 61.63722610473633 15.39720726013184 C 56.95718002319336 13.37626266479492 51.88461303710938 12.3515625 46.5604133605957 12.3515625 C 41.29083633422852 12.3515625 36.24594879150391 13.37626266479492 31.56589126586914 15.39720726013184 C 26.87639236450195 17.42220687866211 22.68184852600098 20.26573944091797 19.09880256652832 23.84879493713379 C 15.51549243927002 27.43210601806641 12.67182540893555 31.62004089355469 10.6467924118042 36.29627227783203 C 8.626125335693359 40.96240615844727 7.601558685302734 46.02774047851562 7.601558685302734 51.3515625 C 7.601558685302734 56.67454147338867 8.632725715637207 61.73912811279297 10.66641426086426 66.40464782714844 C 12.70515823364258 71.081787109375 15.549147605896 75.26354217529297 19.11936950683594 78.83374786376953 C 22.68936920166016 82.40375518798828 26.87772560119629 85.24759674072266 31.56809234619141 87.28630828857422 C 36.24753570556641 89.32025909423828 41.30552673339844 90.3515625 46.60155868530273 90.3515625 M 46.5604133605957 17.71781730651855 C 51.22951507568359 17.71781730651855 55.64727020263672 18.59652900695801 59.69095993041992 20.32954025268555 C 63.72690200805664 22.05922889709473 67.32829284667969 24.49125099182129 70.39509582519531 27.55802917480469 C 73.46218109130859 30.62512969970703 75.89437103271484 34.23382949829102 77.62408447265625 38.28389739990234 C 79.35643768310547 42.34017562866211 80.23497772216797 46.73608779907227 80.23530578613281 51.34921646118164 C 80.26301574707031 55.99245834350586 79.39099884033203 60.40436553955078 77.64350128173828 64.46306610107422 C 75.9005126953125 68.51130676269531 73.47618865966797 72.11164093017578 70.4378662109375 75.16403961181641 C 67.39775085449219 78.21823120117188 63.80234909057617 80.64404296875 59.75152587890625 82.37409210205078 C 55.69450378417969 84.10676574707031 51.27021408081055 84.98530578613281 46.60155868530273 84.98530578613281 C 41.98751449584961 84.98530578613281 37.59092712402344 84.10676574707031 33.53390502929688 82.37409210205078 C 29.48382568359375 80.64436340332031 25.88204765319824 78.21909332275391 22.82860374450684 75.16566467285156 C 19.77444839477539 72.11150360107422 17.35572624206543 68.50880432128906 15.63962554931641 64.45766448974609 C 13.92135906219482 60.40146255493164 13.05012512207031 55.99192810058594 13.05012512207031 51.3515625 C 13.05012512207031 46.73850631713867 13.92135906219482 42.34281921386719 15.63962554931641 38.28660583496094 C 17.35542488098145 34.23618316650391 19.77360343933105 30.62711715698242 22.82698059082031 27.55966186523438 C 25.8804817199707 24.49210739135742 29.47550392150879 22.05953979492188 33.51216888427734 20.32954025268555 C 37.55585861206055 18.59652900695801 41.94592666625977 17.71781730651855 46.5604133605957 17.71781730651855 M 42.36288070678711 68.87008666992188 C 43.42084884643555 68.87008666992188 44.21219253540039 68.40228271484375 44.8542594909668 67.3963623046875 L 62.52798080444336 39.81713104248047 C 62.73199462890625 39.43314361572266 62.93243789672852 39.0314826965332 63.12408065795898 38.62260818481445 C 63.26814651489258 38.31526184082031 63.33818054199219 38.02334213256836 63.33818054199219 37.73016357421875 C 63.33818054199219 37.13056182861328 63.1234016418457 36.67861938476562 62.66224670410156 36.30789566040039 C 62.14078140258789 35.8886833190918 61.58518218994141 35.68489456176758 60.96370315551758 35.68489456176758 C 60.45856857299805 35.68489456176758 59.69379043579102 35.8327522277832 58.88973617553711 37.10813903808594 L 42.32757949829102 63.59035110473633 L 34.04819488525391 52.91914367675781 C 33.67923355102539 52.46492004394531 33.31830596923828 52.1501579284668 32.97534942626953 51.98358535766602 C 32.62997055053711 51.81581878662109 32.26809310913086 51.73427200317383 31.86904716491699 51.73427200317383 C 31.20580291748047 51.73427200317383 30.69650268554688 51.94356155395508 30.26625823974609 52.39291763305664 C 29.83007049560547 52.84850692749023 29.6180248260498 53.38283920288086 29.6180248260498 54.02646255493164 C 29.6180248260498 54.65164184570312 29.87001609802246 55.28266906738281 30.38835144042969 55.95529174804688 L 39.70224761962891 67.33082580566406 C 40.13591384887695 67.90142822265625 40.57017135620117 68.30866241455078 40.99294662475586 68.54119873046875 C 41.39532470703125 68.76250457763672 41.84343719482422 68.87008666992188 42.36288070678711 68.87008666992188 M 46.60155868530273 91.3515625 C 41.14202499389648 91.3515625 35.99799346923828 90.30216979980469 31.16945838928223 88.20341491699219 C 26.3409252166748 86.10465240478516 22.08853721618652 83.21713256835938 18.41225814819336 79.54086303710938 C 14.73599243164062 75.86459350585938 11.84848117828369 71.61904907226562 9.749713897705078 66.80423736572266 C 7.650947570800781 61.98941802978516 6.601558685302734 56.83852767944336 6.601558685302734 51.3515625 C 6.601558685302734 45.86459732055664 7.644081115722656 40.71370697021484 9.72913646697998 35.89888381958008 C 11.81418132781982 31.08407402038574 14.70170307159424 26.83167266845703 18.39169120788574 23.14168548583984 C 22.08166885375977 19.45170783996582 26.3409252166748 16.56418418884277 31.16945838928223 14.47914028167725 C 35.99799346923828 12.39408493041992 41.12831497192383 11.3515625 46.5604133605957 11.3515625 C 52.04738235473633 11.3515625 57.20513534545898 12.39408493041992 62.03365707397461 14.47914028167725 C 66.86219024658203 16.56418418884277 71.1214599609375 19.45170783996582 74.81143951416016 23.14168548583984 C 78.50142669677734 26.83167266845703 81.38893890380859 31.08407402038574 83.47398376464844 35.89888381958008 C 85.55902862548828 40.71370697021484 86.6015625 45.86459732055664 86.6015625 51.3515625 C 86.6015625 56.83852767944336 85.55902862548828 61.98941802978516 83.47398376464844 66.80423736572266 C 81.38893890380859 71.61904907226562 78.50829315185547 75.86459350585938 74.83201599121094 79.54086303710938 C 71.15573883056641 83.21713256835938 66.90335083007812 86.10465240478516 62.07481384277344 88.20341491699219 C 57.24628067016602 90.30216979980469 52.08852386474609 91.3515625 46.60155868530273 91.3515625 Z M 46.5604133605957 18.71781730651855 C 42.06109237670898 18.71781730651855 37.84299087524414 19.56143951416016 33.90609359741211 21.24868392944336 C 29.96919250488281 22.93592834472656 26.51240348815918 25.27475166320801 23.53571510314941 28.26514053344727 C 20.55903625488281 31.25554084777832 18.23393630981445 34.72605133056641 16.5604133605957 38.67666244506836 C 14.88688087463379 42.62728500366211 14.05012512207031 46.85225296020508 14.05012512207031 51.3515625 C 14.05012512207031 55.8783073425293 14.88688087463379 60.11699676513672 16.5604133605957 64.06760406494141 C 18.23393630981445 68.01822662353516 20.55903625488281 71.48187255859375 23.53571510314941 74.45856475830078 C 26.51240348815918 77.43524169921875 29.97604751586914 79.76719665527344 33.92667007446289 81.45445251464844 C 37.87728118896484 83.14168548583984 42.10224914550781 83.98530578613281 46.60155868530273 83.98530578613281 C 51.15574645996094 83.98530578613281 55.40814590454102 83.14168548583984 59.35876846313477 81.45445251464844 C 63.30937957763672 79.76719665527344 66.76616668701172 77.43524169921875 69.72913360595703 74.45856475830078 C 72.69209289550781 71.48187255859375 75.02405548095703 68.01822662353516 76.72501373291016 64.06760406494141 C 78.42597961425781 60.11699676513672 79.26273345947266 55.8783073425293 79.23530578613281 51.3515625 C 79.23530578613281 46.85225296020508 78.39167785644531 42.62728500366211 76.70443725585938 38.67666244506836 C 75.01720428466797 34.72605133056641 72.67838287353516 31.25554084777832 69.68798065185547 28.26514053344727 C 66.69757843017578 25.27475166320801 63.23393630981445 22.93592834472656 59.29703521728516 21.24868392944336 C 55.36013793945312 19.56143951416016 51.11459350585938 18.71781730651855 46.5604133605957 18.71781730651855 Z M 42.36288070678711 69.87008666992188 C 41.677001953125 69.87008666992188 41.05972671508789 69.71919250488281 40.51102447509766 69.41740417480469 C 39.96233749389648 69.11561584472656 39.42736053466797 68.62178802490234 38.90609359741211 67.93592071533203 L 29.60568046569824 56.57789611816406 C 28.94723701477051 55.7274169921875 28.6180248260498 54.8769416809082 28.6180248260498 54.02646255493164 C 28.6180248260498 53.1211051940918 28.92667007446289 52.34607315063477 29.54394721984863 51.70135116577148 C 30.16123580932617 51.056640625 30.93626976013184 50.73427200317383 31.86904716491699 50.73427200317383 C 32.41774749755859 50.73427200317383 32.93214797973633 50.85087203979492 33.41225814819336 51.08407211303711 C 33.89236831665039 51.3172721862793 34.36562347412109 51.72192764282227 34.83201599121094 52.29806137084961 L 42.23942565917969 61.84539413452148 L 58.04189300537109 36.57789611816406 C 58.83750152587891 35.31589508056641 59.81143569946289 34.68489456176758 60.96370315551758 34.68489456176758 C 61.81418228149414 34.68489456176758 62.58921432495117 34.96610641479492 63.28880310058594 35.52851867675781 C 63.9883918762207 36.0909309387207 64.33818054199219 36.8248176574707 64.33818054199219 37.73016357421875 C 64.33818054199219 38.16911697387695 64.23530578613281 38.60807418823242 64.02953338623047 39.04703903198242 C 63.82379150390625 39.48599624633789 63.61116790771484 39.91122817993164 63.39168167114258 40.32275009155273 L 45.69621276855469 67.93592071533203 C 44.8731689453125 69.22536468505859 43.76205825805664 69.87008666992188 42.36288070678711 69.87008666992188 Z" stroke="none" fill="#fff"/>
  </g>
</svg>
